# xmcd
#
# Track frame offsets: 
#        150
#        18473
#        30641
#        40271
#        58656
#        72006
#        89062
#        102747
#        117697
#        126707
#        139060
#        148838
#
# Disc length: 2193 seconds
#
# Revision: 0
# Processed by: cddbd v1.5.2PL0 Copyright (c) Steve Scherf et al.
# Submitted via: ExactAudioCopy v0.99pb5
#
DISCID=c1088f0c
DTITLE=Rough Shop - Here Today
DYEAR=2008
DGENRE=Indie
TTITLE0=Clean Slate
TTITLE1=Wandering Tonight
TTITLE2=Dance All Night
TTITLE3=Dear Mama
TTITLE4=Golden Slumbler Inn
TTITLE5=Drink Up And Go Home
TTITLE6=Here Today
TTITLE7='Til The Well Runs Dry
TTITLE8=Reasons
TTITLE9=Best Of A Bad Thing
TTITLE10=Lost Dog
TTITLE11=Stumbling Angel
EXTD=
EXTT0=
EXTT1=
EXTT2=
EXTT3=
EXTT4=
EXTT5=
EXTT6=
EXTT7=
EXTT8=
EXTT9=
EXTT10=
EXTT11=
PLAYORDER=
